# xmcd
#
# Track frame offsets:
#	150
#	7506
#	20348
#	37248
#	48417
#	61472
#	80304
#	89844
#	103208
#	116355
#	135690
#	146359
#	166435
#	179323
#	193777
#	212666
#	222000
#	237477
#	251383
#	267660
#	282651
#
# Disc length: 3773 seconds
#
# Revision: 0
# Processed by: cddbd v1.5.1PL0 Copyright (c) Steve Scherf et al.
# Submitted via: dBpowerAMP V4.0
#
DISCID=360ebb15
DTITLE=Grillbillies - Album Band Volume 1
DYEAR=1999
DGENRE=Bluegrass
TTITLE0=Sanctuary
TTITLE1=Forty Years of Trouble
TTITLE2=Louise
TTITLE3=Angelina Baker
TTITLE4=Ashokan Farewell
TTITLE5=Early
TTITLE6=Lonesome Dobro
TTITLE7=Wicked Path of Sin
TTITLE8=Things We Said Today
TTITLE9=Who Will Watch the Home Place
TTITLE10=Walkin' Boss
TTITLE11=Wildflowers
TTITLE12=Swallowtail Shuffle
TTITLE13=Ding Dong Polka
TTITLE14=Out Among the Stars
TTITLE15=Beaumont Rag
TTITLE16=Don't Close Your Eyes
TTITLE17=Freight Train Boogie
TTITLE18=Time to Learn
TTITLE19=Rawhide
TTITLE20=Unspecified
EXTD=Bluegrass
EXTT0=
EXTT1=
EXTT2=
EXTT3=
EXTT4=
EXTT5=
EXTT6=
EXTT7=
EXTT8=
EXTT9=
EXTT10=
EXTT11=
EXTT12=
EXTT13=
EXTT14=
EXTT15=
EXTT16=
EXTT17=
EXTT18=
EXTT19=
EXTT20=
PLAYORDER=
